<svg data-v-423bf9ae="" xmlns="http://www.w3.org/2000/svg" viewBox="0 0 411 90" class="iconLeft"><!----><!----><!----><g data-v-423bf9ae="" id="10ee83d0-d1de-4aec-a297-0047d8a88833" fill="black" transform="matrix(4.683840595986125,0,0,4.683840595986125,64.02755137426598,1.9320853927102064)"><path d="M3.95 12.71Q3.11 12.71 2.36 12.41Q1.61 12.10 1.10 11.49Q0.59 10.88 0.44 10.01L0.44 10.01L1.79 9.65Q1.85 10.26 2.16 10.67Q2.46 11.08 2.93 11.28Q3.40 11.48 3.96 11.48L3.96 11.48Q4.80 11.48 5.28 11.08Q5.76 10.69 5.76 9.99L5.76 9.99Q5.76 9.50 5.48 9.15Q5.20 8.81 4.79 8.59Q4.38 8.36 3.68 8.07L3.68 8.07Q2.84 7.72 2.33 7.42Q1.81 7.12 1.45 6.62Q1.09 6.11 1.09 5.35L1.09 5.35Q1.09 4.58 1.46 4.00Q1.84 3.42 2.48 3.11Q3.12 2.80 3.89 2.80L3.89 2.80Q4.79 2.80 5.51 3.20Q6.23 3.60 6.69 4.40L6.69 4.40L5.58 5.10Q5.31 4.58 4.86 4.30Q4.40 4.03 3.86 4.03L3.86 4.03Q3.48 4.03 3.16 4.18Q2.84 4.33 2.65 4.61Q2.46 4.89 2.46 5.26L2.46 5.26Q2.46 5.68 2.71 5.98Q2.97 6.28 3.35 6.48Q3.73 6.68 4.40 6.97L4.40 6.97Q5.27 7.33 5.81 7.65Q6.36 7.96 6.74 8.51Q7.12 9.06 7.12 9.87L7.12 9.87Q7.12 10.73 6.71 11.37Q6.29 12.02 5.56 12.37Q4.84 12.71 3.95 12.71L3.95 12.71ZM8.66 4.37L8.66 2.95L10.09 2.95L10.09 4.37L8.66 4.37ZM8.72 12.61L8.72 5.78L10.04 5.78L10.04 12.61L8.72 12.61ZM12.20 12.61L12.20 5.78L13.53 5.78L13.53 6.67Q13.79 6.19 14.28 5.91Q14.76 5.63 15.33 5.63L15.33 5.63Q16.02 5.63 16.53 5.96Q17.05 6.30 17.34 6.96L17.34 6.96Q17.69 6.31 18.26 5.97Q18.82 5.63 19.52 5.63L19.52 5.63Q20.35 5.63 20.90 6.02Q21.44 6.41 21.71 7.05Q21.97 7.70 21.97 8.48L21.97 8.48L21.97 12.61L20.62 12.61L20.62 8.63Q20.62 7.85 20.33 7.33Q20.04 6.82 19.33 6.82L19.33 6.82Q18.84 6.82 18.48 7.11Q18.12 7.39 17.93 7.85Q17.74 8.31 17.74 8.84L17.74 8.84L17.74 12.61L16.40 12.61L16.40 8.60Q16.40 7.82 16.12 7.32Q15.83 6.82 15.13 6.82L15.13 6.82Q14.64 6.82 14.27 7.12Q13.91 7.42 13.72 7.91Q13.53 8.40 13.53 8.96L13.53 8.96L13.53 12.61L12.20 12.61ZM23.96 15.60L23.96 5.78L25.29 5.78L25.29 6.59Q25.63 6.13 26.16 5.88Q26.68 5.63 27.30 5.63L27.30 5.63Q28.21 5.63 28.85 6.11Q29.50 6.58 29.83 7.39Q30.17 8.20 30.17 9.19L30.17 9.19Q30.17 10.17 29.84 10.98Q29.50 11.79 28.86 12.26Q28.21 12.74 27.32 12.74L27.32 12.74Q26.70 12.74 26.17 12.50Q25.64 12.26 25.29 11.79L25.29 11.79L25.29 15.60L23.96 15.60ZM27.00 11.56Q27.60 11.56 28.02 11.24Q28.43 10.92 28.63 10.39Q28.83 9.85 28.83 9.19L28.83 9.19Q28.83 8.52 28.63 7.98Q28.43 7.44 28.02 7.12Q27.60 6.79 27.00 6.79L27.00 6.79Q26.39 6.79 25.98 7.12Q25.57 7.44 25.37 7.98Q25.17 8.52 25.17 9.19L25.17 9.19Q25.17 9.85 25.37 10.39Q25.57 10.92 25.98 11.24Q26.39 11.56 27.00 11.56L27.00 11.56ZM33.02 12.74Q32.35 12.74 32.06 12.37Q31.77 12.00 31.77 11.24L31.77 11.24L31.77 2.95L33.09 2.95L33.09 11.15Q33.09 11.27 33.20 11.42Q33.30 11.57 33.53 11.57L33.53 11.57Q33.84 11.57 34.10 11.51L34.10 11.51L34.10 12.61Q33.87 12.66 33.57 12.70Q33.28 12.74 33.02 12.74L33.02 12.74ZM38.21 12.72Q37.15 12.72 36.41 12.24Q35.68 11.76 35.31 10.97Q34.95 10.18 34.95 9.22L34.95 9.22Q34.95 8.29 35.30 7.47Q35.65 6.66 36.36 6.16Q37.07 5.66 38.09 5.66L38.09 5.66Q39.17 5.66 39.85 6.16Q40.52 6.65 40.82 7.42Q41.11 8.19 41.11 9.04L41.11 9.04Q41.11 9.41 41.07 9.63L41.07 9.63L36.35 9.63Q36.39 10.48 36.86 11.01Q37.33 11.54 38.21 11.54L38.21 11.54Q38.76 11.54 39.19 11.37Q39.63 11.20 39.99 10.81L39.99 10.81L40.91 11.58Q40.35 12.17 39.69 12.44Q39.04 12.72 38.21 12.72L38.21 12.72ZM36.35 8.62L39.83 8.62Q39.78 7.79 39.34 7.27Q38.91 6.76 38.08 6.76L38.08 6.76Q37.29 6.76 36.86 7.28Q36.42 7.80 36.35 8.62L36.35 8.62ZM50.36 12.74Q48.89 12.74 47.88 12.08Q46.87 11.41 46.38 10.28Q45.88 9.15 45.88 7.77L45.88 7.77Q45.88 6.38 46.38 5.26Q46.87 4.13 47.89 3.46Q48.90 2.79 50.40 2.79L50.40 2.79Q51.81 2.79 52.85 3.46Q53.89 4.14 54.43 5.46L54.43 5.46L53.14 5.99Q52.87 5.00 52.13 4.55Q51.39 4.10 50.37 4.10L50.37 4.10Q49.31 4.10 48.61 4.59Q47.91 5.07 47.58 5.89Q47.26 6.71 47.26 7.72L47.26 7.72Q47.26 8.78 47.59 9.62Q47.92 10.45 48.62 10.94Q49.32 11.44 50.39 11.44L50.39 11.44Q51.38 11.44 52.08 10.99Q52.77 10.54 53.16 9.53L53.16 9.53L54.44 10.07Q53.88 11.36 52.83 12.05Q51.78 12.74 50.36 12.74L50.36 12.74ZM55.86 12.61L55.86 2.95L57.19 2.95L57.19 6.75Q57.55 6.22 58.12 5.93Q58.69 5.65 59.29 5.65L59.29 5.65Q60.11 5.65 60.65 6.03Q61.19 6.42 61.44 7.05Q61.70 7.68 61.70 8.44L61.70 8.44L61.70 12.61L60.35 12.61L60.35 8.63Q60.35 6.86 59.01 6.86L59.01 6.86Q58.45 6.86 58.04 7.15Q57.63 7.44 57.41 7.93Q57.19 8.42 57.19 9.03L57.19 9.03L57.19 12.61L55.86 12.61ZM65.39 12.74Q64.72 12.74 64.19 12.49Q63.66 12.24 63.36 11.75Q63.05 11.27 63.05 10.61L63.05 10.61Q63.05 9.58 63.80 9.10Q64.55 8.62 65.93 8.62L65.93 8.62L67.59 8.62Q67.59 7.77 67.21 7.28Q66.83 6.79 66.06 6.79L66.06 6.79Q65.46 6.79 65.02 7.07Q64.59 7.36 64.31 7.79L64.31 7.79L63.31 7.05Q63.81 6.36 64.47 6.00Q65.14 5.63 66.03 5.63L66.03 5.63Q66.91 5.63 67.54 5.98Q68.17 6.34 68.50 6.97Q68.83 7.60 68.83 8.44L68.83 8.44L68.83 12.61L67.73 12.61L67.66 11.45Q67.28 12.13 66.69 12.43Q66.11 12.74 65.39 12.74L65.39 12.74ZM65.56 11.62Q66.14 11.62 66.60 11.33Q67.05 11.03 67.32 10.56Q67.58 10.10 67.59 9.60L67.59 9.60L66.02 9.60Q65.22 9.60 64.82 9.86Q64.42 10.13 64.42 10.65L64.42 10.65Q64.42 11.12 64.73 11.37Q65.04 11.62 65.56 11.62L65.56 11.62ZM72.91 12.74Q71.98 12.74 71.51 12.22Q71.03 11.69 71.03 10.76L71.03 10.76L71.03 6.88L69.93 6.88L69.93 5.78L71.05 5.78L71.05 4.16L72.34 3.10L72.34 5.78L74.07 5.78L74.07 6.88L72.34 6.88L72.34 10.62Q72.34 11.13 72.57 11.37Q72.80 11.61 73.17 11.61L73.17 11.61Q73.36 11.61 73.58 11.55Q73.79 11.48 73.98 11.40L73.98 11.40L73.98 12.57Q73.81 12.64 73.52 12.69Q73.23 12.74 72.91 12.74L72.91 12.74Z"></path></g><!----><g data-v-423bf9ae="" id="aa272891-d30e-4904-bb87-4ab9b8c66545" transform="matrix(2.8125,0,0,2.8125,-21.194407999515533,0)" stroke="none" fill="black"><path d="M18.396 26.495L7.807 15.905 18.432 5.28l.707.707-9.918 9.918 9.882 9.883z"></path><path d="M23.194 1v4.194H19V1h4.194m1-1H18v6.194h6.194V0zM23.194 26.806V31H19v-4.194h4.194m1-1H18V32h6.194v-6.194z"></path></g><!----></svg>